<svg width="70" height="70" viewBox="0 0 70 70" fill="none" xmlns="http://www.w3.org/2000/svg">
<path d="M0 5.99999C0 2.68628 2.68629 0 6 0H64.0007C67.3144 0 70.0007 2.68629 70.0007 6V64.0002C70.0007 67.3139 67.3144 70.0002 64.0007 70.0002H6C2.68629 70.0002 0 67.3139 0 64.0002V5.99999Z" fill="#B32B2F"/>
<path d="M39.7904 23.0363C38.5741 21.7231 36.8754 21 35.0004 21C33.1154 21 31.411 21.7187 30.2004 23.0237C28.9766 24.3431 28.3804 26.1363 28.5204 28.0725C28.7979 31.8925 31.7047 35 35.0004 35C38.296 35 41.1979 31.8931 41.4797 28.0737C41.6216 26.155 41.0216 24.3656 39.7904 23.0363ZM46.0004 49H24.0004C23.7124 49.0037 23.4272 48.9433 23.1656 48.8229C22.9039 48.7026 22.6724 48.5254 22.4879 48.3044C22.0816 47.8188 21.9179 47.1556 22.0391 46.485C22.5666 43.5588 24.2129 41.1006 26.8004 39.375C29.0991 37.8431 32.011 37 35.0004 37C37.9897 37 40.9016 37.8438 43.2004 39.375C45.7879 41.1 47.4341 43.5581 47.9616 46.4844C48.0829 47.155 47.9191 47.8181 47.5129 48.3037C47.3284 48.5249 47.0969 48.7022 46.8352 48.8226C46.5736 48.9431 46.2884 49.0037 46.0004 49Z" fill="white"/>
</svg>
