<svg width="70" height="70" viewBox="0 0 70 70" fill="none" xmlns="http://www.w3.org/2000/svg">
<path d="M0 6C0 2.68629 2.68629 0 6 0H64C67.3137 0 70 2.68629 70 6V64C70 67.3137 67.3137 70 64 70H6C2.68629 70 0 67.3137 0 64V6Z" fill="#B32B2F"/>
<path d="M48 24H44.2437C44.1774 24 44.1139 23.9737 44.067 23.9268C44.0201 23.8799 43.9937 23.8163 43.9937 23.75V22.995C43.9924 22.4654 43.7811 21.958 43.4062 21.584C43.0313 21.21 42.5233 21 41.9937 21L28.0069 21.0162C27.4778 21.0172 26.9708 21.2278 26.5966 21.6018C26.2225 21.9758 26.0118 22.4828 26.0106 23.0119V23.75C26.0106 23.8163 25.9843 23.8799 25.9374 23.9268C25.8905 23.9737 25.8269 24 25.7606 24H22C21.7348 24 21.4804 24.1054 21.2929 24.2929C21.1054 24.4804 21 24.7348 21 25V26C21 29.4081 22.875 33.0281 25.7825 33.8344C25.8685 33.8583 25.9463 33.9053 26.0074 33.9703C26.0686 34.0353 26.1107 34.1158 26.1294 34.2031C26.49 35.8837 27.5994 37.4844 29.3425 38.8037C30.6494 39.7931 32.2081 40.5225 33.6094 40.8337C33.7202 40.8586 33.8192 40.9204 33.8902 41.009C33.9612 41.0976 33.9999 41.2077 34 41.3213V46.75C34 46.8163 33.9737 46.8799 33.9268 46.9268C33.8799 46.9737 33.8163 47 33.75 47H30.0281C29.49 47 29.0281 47.4138 29.0013 47.9519C28.9947 48.0871 29.0157 48.2222 29.063 48.3491C29.1102 48.4759 29.1828 48.5919 29.2761 48.6898C29.3695 48.7878 29.4818 48.8659 29.6063 48.9192C29.7307 48.9725 29.8646 49 30 49H39.9719C40.51 49 40.9719 48.5862 40.9988 48.0481C41.0053 47.9129 40.9843 47.7778 40.937 47.6509C40.8898 47.5241 40.8172 47.4081 40.7239 47.3102C40.6305 47.2122 40.5182 47.1341 40.3937 47.0808C40.2693 47.0275 40.1354 47 40 47H36.25C36.1837 47 36.1201 46.9737 36.0732 46.9268C36.0263 46.8799 36 46.8163 36 46.75V41.3213C36.0001 41.2077 36.0388 41.0976 36.1098 41.009C36.1808 40.9204 36.2798 40.8586 36.3906 40.8337C37.7919 40.5212 39.3506 39.7931 40.6575 38.8037C42.4006 37.4844 43.51 35.8837 43.8706 34.2031C43.8893 34.1158 43.9314 34.0353 43.9926 33.9703C44.0537 33.9053 44.1315 33.8583 44.2175 33.8344C47.125 33.0281 49 29.4081 49 26V25C49 24.7348 48.8946 24.4804 48.7071 24.2929C48.5196 24.1054 48.2652 24 48 24ZM26 31.3888C25.9998 31.4326 25.9882 31.4756 25.9662 31.5134C25.9442 31.5513 25.9126 31.5828 25.8746 31.6046C25.8366 31.6264 25.7936 31.6379 25.7498 31.6379C25.706 31.6378 25.6629 31.6263 25.625 31.6044C24.9837 31.2225 24.5156 30.6438 24.2413 30.2362C23.4969 29.1306 23.0538 27.6944 23.0044 26.2594C23.0031 26.2258 23.0086 26.1922 23.0206 26.1608C23.0326 26.1294 23.0509 26.1007 23.0742 26.0765C23.0975 26.0523 23.1255 26.033 23.1565 26.0199C23.1874 26.0067 23.2207 26 23.2544 26H25.7544C25.8207 26 25.8843 26.0263 25.9312 26.0732C25.978 26.1201 26.0044 26.1837 26.0044 26.25C26.0031 27.9656 26 29.9294 26 31.3888ZM45.7581 30.2362C45.4837 30.6438 45.0163 31.2225 44.375 31.6044C44.337 31.6263 44.2939 31.6379 44.2501 31.6379C44.2062 31.6379 44.1631 31.6264 44.1251 31.6044C44.0871 31.5825 44.0556 31.551 44.0336 31.513C44.0116 31.4751 44 31.432 44 31.3881C44 29.7313 44 27.8488 43.9969 26.25C43.9969 26.1837 44.0232 26.1201 44.0701 26.0732C44.117 26.0263 44.1806 26 44.2469 26H46.7469C46.7805 26 46.8138 26.0067 46.8448 26.0199C46.8757 26.033 46.9037 26.0523 46.9271 26.0765C46.9504 26.1007 46.9686 26.1294 46.9806 26.1608C46.9926 26.1922 46.9981 26.2258 46.9969 26.2594C46.9475 27.6944 46.5031 29.1306 45.7588 30.2362H45.7581Z" fill="white"/>
</svg>
