<svg width="70" height="70" viewBox="0 0 70 70" fill="none" xmlns="http://www.w3.org/2000/svg">
<path d="M0 6C0 2.68629 2.68629 0 6 0H64C67.3137 0 70 2.68629 70 6V64C70 67.3137 67.3137 70 64 70H6C2.68629 70 0 67.3137 0 64V6Z" fill="#B32B2F"/>
<path d="M37 48H33C32.7348 48 32.4805 48.1054 32.2929 48.2929C32.1054 48.4805 32 48.7348 32 49C32 49.2652 32.1054 49.5196 32.2929 49.7071C32.4805 49.8947 32.7348 50 33 50H37C37.2652 50 37.5196 49.8947 37.7071 49.7071C37.8947 49.5196 38 49.2652 38 49C38 48.7348 37.8947 48.4805 37.7071 48.2929C37.5196 48.1054 37.2652 48 37 48ZM38 45H32C31.7348 45 31.4805 45.1054 31.2929 45.2929C31.1054 45.4805 31 45.7348 31 46C31 46.2652 31.1054 46.5196 31.2929 46.7071C31.4805 46.8947 31.7348 47 32 47H38C38.2652 47 38.5196 46.8947 38.7071 46.7071C38.8947 46.5196 39 46.2652 39 46C39 45.7348 38.8947 45.4805 38.7071 45.2929C38.5196 45.1054 38.2652 45 38 45ZM42.0888 22.9182C40.2094 21.0363 37.6919 20 35 20C33.6859 19.9969 32.3842 20.2534 31.1695 20.7549C29.9548 21.2563 28.8512 21.9928 27.922 22.922C26.9928 23.8512 26.2563 24.9548 25.7549 26.1695C25.2534 27.3842 24.9969 28.6859 25 30C25 32.9138 26.1169 35.6394 28.0625 37.4775L28.335 37.7332C29.4607 38.7857 31 40.2275 31 41.5V43C31 43.2652 31.1054 43.5196 31.2929 43.7071C31.4805 43.8947 31.7348 44 32 44H33.5C33.6326 44 33.7598 43.9473 33.8536 43.8536C33.9474 43.7598 34 43.6326 34 43.5V36.1763C34.0001 36.0752 33.9694 35.9764 33.9122 35.8931C33.855 35.8097 33.7738 35.7457 33.6794 35.7094C33.102 35.4738 32.5534 35.1729 32.0444 34.8125C31.93 34.7395 31.8317 34.6439 31.7554 34.5317C31.6792 34.4194 31.6266 34.2928 31.6008 34.1596C31.575 34.0263 31.5767 33.8892 31.6056 33.7566C31.6345 33.624 31.6901 33.4987 31.769 33.3883C31.8479 33.2779 31.9485 33.1847 32.0645 33.1144C32.1806 33.0441 32.3098 32.9981 32.4442 32.9793C32.5786 32.9606 32.7154 32.9693 32.8463 33.0051C32.9772 33.0409 33.0995 33.103 33.2057 33.1875C33.6682 33.515 34.5588 34 35 34C35.4413 34 36.3319 33.5138 36.7957 33.1875C37.0116 33.0518 37.2712 33.0037 37.5215 33.053C37.7717 33.1024 37.9936 33.2455 38.1418 33.4531C38.29 33.6607 38.3532 33.9171 38.3186 34.1698C38.284 34.4225 38.1542 34.6524 37.9557 34.8125C37.4466 35.1723 36.898 35.4725 36.3207 35.7075C36.2263 35.7438 36.1451 35.8078 36.0879 35.8912C36.0306 35.9745 36 36.0733 36 36.1744V43.5C36 43.6326 36.0527 43.7598 36.1465 43.8536C36.2402 43.9473 36.3674 44 36.5 44H38C38.2652 44 38.5196 43.8947 38.7071 43.7071C38.8947 43.5196 39 43.2652 39 43V41.5C39 40.2575 40.5225 38.8169 41.6344 37.7644L41.9413 37.4732C43.9425 35.5625 45 32.9757 45 30C45.0067 28.6858 44.7528 27.3833 44.2531 26.1678C43.7534 24.9522 43.0178 23.8477 42.0888 22.9182Z" fill="white"/>
</svg>
