<svg width="25" height="27" viewBox="0 0 25 27" fill="none" xmlns="http://www.w3.org/2000/svg">
<g clip-path="url(#clip0_239_73)">
<path d="M24.7495 14.3314H18.8075C18.9091 9.55868 20.1373 9.01691 21.68 8.86227L22.2749 8.781L22.2749 3.53291L21.5892 3.57341C19.5747 3.69831 17.3476 4.09854 15.8617 6.12013C14.5592 7.89232 13.985 10.7876 13.985 15.2321L13.985 23.4678H24.7495V14.3314Z" fill="white"/>
<path d="M11.0156 23.4678L11.0156 14.3314H5.1529C5.25449 9.55868 6.44304 9.01691 7.98571 8.86227L8.54102 8.781V3.53291L7.89489 3.57341C5.88044 3.69831 3.63337 4.09854 2.14749 6.12013C0.845102 7.89232 0.251073 10.7876 0.251073 15.2321L0.251073 23.4678H11.0156Z" fill="white"/>
</g>
<defs>
<clipPath id="clip0_239_73">
<rect width="24.4986" height="27" fill="white" transform="matrix(-1 0 0 -1 24.7495 27)"/>
</clipPath>
</defs>
</svg>
