<svg width="27" height="21" viewBox="0 0 27 21" fill="none" xmlns="http://www.w3.org/2000/svg">
<path d="M26.2883 11.3309H20.3274C20.4293 6.55819 21.6615 6.01642 23.209 5.86178L23.8058 5.78051L23.8058 0.532419L23.1179 0.572918C21.0971 0.697826 18.8628 1.09805 17.3722 3.11965C16.0656 4.89183 15.4895 7.7871 15.4895 12.2316L15.4895 20.4673H26.2883V11.3309Z" fill="#4B5563"/>
<path d="M11.5105 20.4673L11.5105 11.3309H5.62911C5.73101 6.55819 6.92335 6.01642 8.47094 5.86178L9.02801 5.78051V0.532419L8.37983 0.572918C6.35896 0.697826 4.10473 1.09805 2.61412 3.11965C1.30759 4.89183 0.711664 7.7871 0.711664 12.2316L0.711664 20.4673H11.5105Z" fill="#4B5563"/>
</svg>
