<svg width="70" height="70" viewBox="0 0 70 70" fill="none" xmlns="http://www.w3.org/2000/svg">
<path d="M0 6C0 2.68629 2.68629 0 6 0H64C67.3137 0 70 2.68629 70 6V64C70 67.3137 67.3137 70 64 70H6C2.68629 70 0 67.3137 0 64V6Z" fill="#B32B2F"/>
<path d="M28.5994 25.9037C28.7308 25.7737 28.8338 25.6179 28.902 25.4461C28.9702 25.2742 29.002 25.0902 28.9955 24.9054C28.9889 24.7207 28.9442 24.5393 28.8641 24.3727C28.784 24.2061 28.6703 24.0579 28.53 23.9375C27.8243 23.3352 26.9278 23.003 26 23L25.7957 23.0056H25.7657C23.65 23.1344 22 24.9719 22.0044 27.1875C22.0044 28.375 22.5044 29.0037 22.8994 29.5069C23.0102 29.6475 23.1492 29.7635 23.3074 29.8475C23.4656 29.9314 23.6395 29.9814 23.8182 29.9944C23.8344 29.9944 23.8619 29.9975 23.9432 29.9975C24.1038 29.9973 24.2628 29.9645 24.4105 29.9013C24.5581 29.838 24.6915 29.7455 24.8025 29.6294L28.5994 25.9037ZM44.2369 23.0069L44.0325 23.0006H44C43.0714 23.003 42.1739 23.3353 41.4675 23.9381C41.3275 24.0586 41.2139 24.2067 41.1339 24.3731C41.0539 24.5396 41.0093 24.7209 41.0028 24.9054C40.9962 25.09 41.028 25.274 41.0961 25.4457C41.1641 25.6174 41.267 25.7731 41.3982 25.9031L45.1963 29.6313C45.3075 29.7478 45.4413 29.8406 45.5894 29.904C45.7376 29.9674 45.897 30 46.0582 30C46.1382 30 46.1657 30 46.1832 29.9969C46.3617 29.9839 46.5355 29.9338 46.6936 29.8499C46.8517 29.7659 46.9905 29.65 47.1013 29.5094C47.4988 29.0062 47.9938 28.3794 47.9963 27.19C48 24.9719 46.35 23.1344 44.2369 23.0069Z" fill="white"/>
<path d="M35.0046 25C28.9421 25 24.0046 29.9344 24.0046 36C24.0025 38.5717 24.9055 41.0622 26.5553 43.035L24.2978 45.2931C24.2027 45.3855 24.127 45.4958 24.0749 45.6178C24.0229 45.7397 23.9956 45.8707 23.9947 46.0033C23.9937 46.1358 24.0191 46.2672 24.0694 46.3898C24.1197 46.5125 24.1939 46.6239 24.2877 46.7176C24.3814 46.8113 24.4929 46.8854 24.6155 46.9357C24.7382 46.9859 24.8696 47.0113 25.0022 47.0103C25.1347 47.0093 25.2657 46.982 25.3876 46.9299C25.5095 46.8778 25.6198 46.802 25.7121 46.7069L27.9696 44.4494C29.9435 46.0973 32.4333 47.0001 35.0046 47.0001C37.576 47.0001 40.0658 46.0973 42.0396 44.4494L44.2978 46.7069C44.3901 46.802 44.5004 46.8778 44.6223 46.9299C44.7442 46.982 44.8752 47.0093 45.0078 47.0103C45.1403 47.0113 45.2717 46.9859 45.3944 46.9357C45.5171 46.8854 45.6285 46.8113 45.7222 46.7176C45.816 46.6239 45.8902 46.5125 45.9405 46.3898C45.9908 46.2672 46.0162 46.1358 46.0153 46.0033C46.0143 45.8707 45.987 45.7397 45.935 45.6178C45.883 45.4958 45.8072 45.3855 45.7122 45.2931L43.454 43.035C45.1041 41.0624 46.0071 38.5718 46.0047 36C46.0047 29.9375 41.0703 25 35.0046 25ZM36.0046 36C36.0046 36.2652 35.8993 36.5196 35.7118 36.7071C35.5242 36.8946 35.2699 37 35.0046 37H30.0046C29.7394 37 29.4851 36.8946 29.2975 36.7071C29.11 36.5196 29.0046 36.2652 29.0046 36C29.0046 35.7348 29.11 35.4804 29.2975 35.2929C29.4851 35.1054 29.7394 35 30.0046 35H34.0046V29C34.0046 28.7348 34.11 28.4804 34.2975 28.2929C34.4851 28.1054 34.7394 28 35.0046 28C35.2699 28 35.5242 28.1054 35.7118 28.2929C35.8993 28.4804 36.0046 28.7348 36.0046 29V36Z" fill="white"/>
</svg>
